<svg xmlns="http://www.w3.org/2000/svg" width="670.9771728515625" height="665.63232421875" viewBox="-139.57345581054688 -512.2911376953125 670.9771728515625 665.63232421875"><title>Neo4j Graph Visualization</title><desc>Created using Neo4j (http://www.neo4j.com/)</desc><g class="layer relationships"><g class="relationship" transform="translate(92.37769437269309 -121.80679414693057) rotate(285.75960799072084)"><path class="outline" fill="#A5ABB6" stroke="none" d="M 25 0.5 L 76.89573552626022 0.5 L 76.89573552626022 -0.5 L 25 -0.5 Z M 111.34104802626022 0.5 L 163.23678355252045 0.5 L 163.23678355252045 3.5 L 170.23678355252045 0 L 163.23678355252045 -3.5 L 163.23678355252045 -0.5 L 111.34104802626022 -0.5 Z"/><text text-anchor="middle" pointer-events="none" font-size="8px" fill="#000000" x="94.11839177626022" y="3" font-family="sans-serif">ORIGIN</text></g><g class="relationship" transform="translate(92.37769437269309 -121.80679414693057) rotate(256.3560568730904)"><path class="outline" fill="#A5ABB6" stroke="none" d="M 25 0.5 L 54.79849133023569 0.5 L 54.79849133023569 -0.5 L 25 -0.5 Z M 113.98989758023569 0.5 L 143.78838891047138 0.5 L 143.78838891047138 3.5 L 150.78838891047138 0 L 143.78838891047138 -3.5 L 143.78838891047138 -0.5 L 113.98989758023569 -0.5 Z"/><text text-anchor="middle" pointer-events="none" font-size="8px" fill="#000000" x="84.39419445523569" y="3" transform="rotate(180 84.39419445523569 0)" font-family="sans-serif">DESTINATION</text></g><g class="relationship" transform="translate(189.77347855586498 -132.0738235208106) rotate(255.97546693160012)"><path class="outline" fill="#A5ABB6" stroke="none" d="M 25 0.5 L 70.8214590361741 0.5 L 70.8214590361741 -0.5 L 25 -0.5 Z M 105.2667715361741 0.5 L 151.0882305723482 0.5 L 151.0882305723482 3.5 L 158.0882305723482 0 L 151.0882305723482 -3.5 L 151.0882305723482 -0.5 L 105.2667715361741 -0.5 Z"/><text text-anchor="middle" pointer-events="none" font-size="8px" fill="#000000" x="88.0441152861741" y="3" transform="rotate(180 88.0441152861741 0)" font-family="sans-serif">ORIGIN</text></g><g class="relationship" transform="translate(189.77347855586498 -132.0738235208106) rotate(444.36192020974744)"><path class="outline" fill="#A5ABB6" stroke="none" d="M 25 0.5 L 68.28180880412184 0.5 L 68.28180880412184 -0.5 L 25 -0.5 Z M 127.47321505412184 0.5 L 170.75502385824367 0.5 L 170.75502385824367 3.5 L 177.75502385824367 0 L 170.75502385824367 -3.5 L 170.75502385824367 -0.5 L 127.47321505412184 -0.5 Z"/><text text-anchor="middle" pointer-events="none" font-size="8px" fill="#000000" x="97.87751192912184" y="3" font-family="sans-serif">DESTINATION</text></g><g class="relationship" transform="translate(395.26423527474935 -267.44148537464827) rotate(189.60054620957533)"><path class="outline" fill="#A5ABB6" stroke="none" d="M 25 0.5 L 105.98184585481108 0.5 L 105.98184585481108 -0.5 L 25 -0.5 Z M 140.42715835481107 0.5 L 221.40900420962217 0.5 L 221.40900420962217 3.5 L 228.40900420962217 0 L 221.40900420962217 -3.5 L 221.40900420962217 -0.5 L 140.42715835481107 -0.5 Z"/><text text-anchor="middle" pointer-events="none" font-size="8px" fill="#000000" x="123.20450210481108" y="3" transform="rotate(180 123.20450210481108 0)" font-family="sans-serif">ORIGIN</text></g><g class="relationship" transform="translate(395.26423527474935 -267.44148537464827) rotate(406.6693255519269)"><path class="outline" fill="#A5ABB6" stroke="none" d="M 25 0.5 L 44.970664123225006 0.5 L 44.970664123225006 -0.5 L 25 -0.5 Z M 104.162070373225 0.5 L 124.13273449645001 0.5 L 124.13273449645001 3.5 L 131.13273449645 0 L 124.13273449645001 -3.5 L 124.13273449645001 -0.5 L 104.162070373225 -0.5 Z"/><text text-anchor="middle" pointer-events="none" font-size="8px" fill="#000000" x="74.566367248225" y="3" font-family="sans-serif">DESTINATION</text></g><g class="relationship" transform="translate(242.48008912460352 -319.7941151255231) rotate(534.0662798076997)"><path class="outline" fill="#A5ABB6" stroke="none" d="M 25 0.5 L 28.076665703523737 0.5 L 28.076665703523737 -0.5 L 25 -0.5 Z M 62.52197820352374 0.5 L 65.59864390704747 0.5 L 65.59864390704747 3.5 L 72.59864390704747 0 L 65.59864390704747 -3.5 L 65.59864390704747 -0.5 L 62.52197820352374 -0.5 Z"/><text text-anchor="middle" pointer-events="none" font-size="8px" fill="#000000" x="45.29932195352374" y="3" transform="rotate(180 45.29932195352374 0)" font-family="sans-serif">ORIGIN</text></g><g class="relationship" transform="translate(242.48008912460352 -319.7941151255231) rotate(531.9306790151061)"><path class="outline" fill="#A5ABB6" stroke="none" d="M 25 0.5 L 63.646483432684576 0.5 L 63.646483432684576 -0.5 L 25 -0.5 Z M 122.83788968268458 0.5 L 161.48437311536915 0.5 L 161.48437311536915 3.5 L 168.48437311536915 0 L 161.48437311536915 -3.5 L 161.48437311536915 -0.5 L 122.83788968268458 -0.5 Z"/><text text-anchor="middle" pointer-events="none" font-size="8px" fill="#000000" x="93.24218655768458" y="3" transform="rotate(180 93.24218655768458 0)" font-family="sans-serif">DESTINATION</text></g><g class="relationship" transform="translate(300.3413350854752 -239.86468698460456) rotate(204.26409855350943)"><path class="outline" fill="#A5ABB6" stroke="none" d="M 25 0.5 L 64.25244907707534 0.5 L 64.25244907707534 -0.5 L 25 -0.5 Z M 98.69776157707534 0.5 L 137.95021065415068 0.5 L 137.95021065415068 3.5 L 144.95021065415068 0 L 137.95021065415068 -3.5 L 137.95021065415068 -0.5 L 98.69776157707534 -0.5 Z"/><text text-anchor="middle" pointer-events="none" font-size="8px" fill="#000000" x="81.47510532707534" y="3" transform="rotate(180 81.47510532707534 0)" font-family="sans-serif">ORIGIN</text></g><g class="relationship" transform="translate(300.3413350854752 -239.86468698460456) rotate(533.628261315185)"><path class="outline" fill="#A5ABB6" stroke="none" d="M 25 0.5 L 62.643638661570364 0.5 L 62.643638661570364 -0.5 L 25 -0.5 Z M 121.83504491157036 0.5 L 159.47868357314073 0.5 L 159.47868357314073 3.5 L 166.47868357314073 0 L 159.47868357314073 -3.5 L 159.47868357314073 -0.5 L 121.83504491157036 -0.5 Z"/><text text-anchor="middle" pointer-events="none" font-size="8px" fill="#000000" x="92.23934178657036" y="3" transform="rotate(180 92.23934178657036 0)" font-family="sans-serif">DESTINATION</text></g><g class="relationship" transform="translate(337.1990032155495 -347.0466418529891) rotate(528.982449935766)"><path class="outline" fill="#A5ABB6" stroke="none" d="M 25 0.5 L 76.97536562270956 0.5 L 76.97536562270956 -0.5 L 25 -0.5 Z M 111.42067812270956 0.5 L 163.39604374541912 0.5 L 163.39604374541912 3.5 L 170.39604374541912 0 L 163.39604374541912 -3.5 L 163.39604374541912 -0.5 L 111.42067812270956 -0.5 Z"/><text text-anchor="middle" pointer-events="none" font-size="8px" fill="#000000" x="94.19802187270956" y="3" transform="rotate(180 94.19802187270956 0)" font-family="sans-serif">ORIGIN</text></g><g class="relationship" transform="translate(337.1990032155495 -347.0466418529891) rotate(499.15645006413234)"><path class="outline" fill="#A5ABB6" stroke="none" d="M 25 0.5 L 56.83431438564753 0.5 L 56.83431438564753 -0.5 L 25 -0.5 Z M 116.02572063564753 0.5 L 147.86003502129506 0.5 L 147.86003502129506 3.5 L 154.86003502129506 0 L 147.86003502129506 -3.5 L 147.86003502129506 -0.5 L 116.02572063564753 -0.5 Z"/><text text-anchor="middle" pointer-events="none" font-size="8px" fill="#000000" x="86.43001751064753" y="3" transform="rotate(180 86.43001751064753 0)" font-family="sans-serif">DESTINATION</text></g><g class="relationship" transform="translate(288.2283042138602 -141.85102699482022) rotate(229.60606243560085)"><path class="outline" fill="#A5ABB6" stroke="none" d="M 25 0.5 L 89.47431457109403 0.5 L 89.47431457109403 -0.5 L 25 -0.5 Z M 123.91962707109403 0.5 L 188.39394164218805 0.5 L 188.39394164218805 3.5 L 195.39394164218805 0 L 188.39394164218805 -3.5 L 188.39394164218805 -0.5 L 123.91962707109403 -0.5 Z"/><text text-anchor="middle" pointer-events="none" font-size="8px" fill="#000000" x="106.69697082109403" y="3" transform="rotate(180 106.69697082109403 0)" font-family="sans-serif">ORIGIN</text></g><g class="relationship" transform="translate(288.2283042138602 -141.85102699482022) rotate(470.3666942248974)"><path class="outline" fill="#A5ABB6" stroke="none" d="M 25 0.5 L 79.73356214225507 0.5 L 79.73356214225507 -0.5 L 25 -0.5 Z M 138.92496839225507 0.5 L 193.65853053451013 0.5 L 193.65853053451013 3.5 L 200.65853053451013 0 L 193.65853053451013 -3.5 L 193.65853053451013 -0.5 L 138.92496839225507 -0.5 Z"/><text text-anchor="middle" pointer-events="none" font-size="8px" fill="#000000" x="109.32926526725507" y="3" transform="rotate(180 109.32926526725507 0)" font-family="sans-serif">DESTINATION</text></g><g class="relationship" transform="translate(249.59140473117182 -53.34335027602611) rotate(247.88282201140066)"><path class="outline" fill="#A5ABB6" stroke="none" d="M 25 0.5 L 117.63920090140564 0.5 L 117.63920090140564 -0.5 L 25 -0.5 Z M 152.08451340140564 0.5 L 244.7237143028113 0.5 L 244.7237143028113 3.5 L 251.7237143028113 0 L 244.7237143028113 -3.5 L 244.7237143028113 -0.5 L 152.08451340140564 -0.5 Z"/><text text-anchor="middle" pointer-events="none" font-size="8px" fill="#000000" x="134.86185715140564" y="3" transform="rotate(180 134.86185715140564 0)" font-family="sans-serif">ORIGIN</text></g><g class="relationship" transform="translate(249.59140473117182 -53.34335027602611) rotate(467.9659101745394)"><path class="outline" fill="#A5ABB6" stroke="none" d="M 25 0.5 L 31.579699994586022 0.5 L 31.579699994586022 -0.5 L 25 -0.5 Z M 90.77110624458602 0.5 L 97.35080623917204 0.5 L 97.35080623917204 3.5 L 104.35080623917204 0 L 97.35080623917204 -3.5 L 97.35080623917204 -0.5 L 90.77110624458602 -0.5 Z"/><text text-anchor="middle" pointer-events="none" font-size="8px" fill="#000000" x="61.17540311958602" y="3" transform="rotate(180 61.17540311958602 0)" font-family="sans-serif">DESTINATION</text></g><g class="relationship" transform="translate(86.69716114385224 -483.2910945727175) rotate(431.31439195030947)"><path class="outline" fill="#A5ABB6" stroke="none" d="M 25 0.5 L 70.8999629956722 0.5 L 70.8999629956722 -0.5 L 25 -0.5 Z M 105.3452754956722 0.5 L 151.2452384913444 0.5 L 151.2452384913444 3.5 L 158.2452384913444 0 L 151.2452384913444 -3.5 L 151.2452384913444 -0.5 L 105.3452754956722 -0.5 Z"/><text text-anchor="middle" pointer-events="none" font-size="8px" fill="#000000" x="88.1226192456722" y="3" font-family="sans-serif">ORIGIN</text></g><g class="relationship" transform="translate(86.69716114385224 -483.2910945727175) rotate(460.6305814754012)"><path class="outline" fill="#A5ABB6" stroke="none" d="M 25 0.5 L 63.89728223345266 0.5 L 63.89728223345266 -0.5 L 25 -0.5 Z M 123.08868848345266 0.5 L 161.9859707169053 0.5 L 161.9859707169053 3.5 L 168.9859707169053 0 L 161.9859707169053 -3.5 L 161.9859707169053 -0.5 L 123.08868848345266 -0.5 Z"/><text text-anchor="middle" pointer-events="none" font-size="8px" fill="#000000" x="93.49298535845266" y="3" transform="rotate(180 93.49298535845266 0)" font-family="sans-serif">DESTINATION</text></g><g class="relationship" transform="translate(168.93392140780435 -428.87573910837267) rotate(461.1690132730361)"><path class="outline" fill="#A5ABB6" stroke="none" d="M 25 0.5 L 40.01326342904697 0.5 L 40.01326342904697 -0.5 L 25 -0.5 Z M 74.45857592904697 0.5 L 89.47183935809394 0.5 L 89.47183935809394 3.5 L 96.47183935809394 0 L 89.47183935809394 -3.5 L 89.47183935809394 -0.5 L 74.45857592904697 -0.5 Z"/><text text-anchor="middle" pointer-events="none" font-size="8px" fill="#000000" x="57.23591967904697" y="3" transform="rotate(180 57.23591967904697 0)" font-family="sans-serif">ORIGIN</text></g><g class="relationship" transform="translate(168.93392140780435 -428.87573910837267) rotate(440.8290185668852)"><path class="outline" fill="#A5ABB6" stroke="none" d="M 25 0.5 L 67.92402289339277 0.5 L 67.92402289339277 -0.5 L 25 -0.5 Z M 127.11542914339277 0.5 L 170.03945203678555 0.5 L 170.03945203678555 3.5 L 177.03945203678555 0 L 170.03945203678555 -3.5 L 170.03945203678555 -0.5 L 127.11542914339277 -0.5 Z"/><text text-anchor="middle" pointer-events="none" font-size="8px" fill="#000000" x="97.51972601839277" y="3" font-family="sans-serif">DESTINATION</text></g><g class="relationship" transform="translate(-9.223822996490167 -462.4530246275984) rotate(404.6496175951258)"><path class="outline" fill="#A5ABB6" stroke="none" d="M 25 0.5 L 87.95342998439696 0.5 L 87.95342998439696 -0.5 L 25 -0.5 Z M 122.39874248439696 0.5 L 185.35217246879392 0.5 L 185.35217246879392 3.5 L 192.35217246879392 0 L 185.35217246879392 -3.5 L 185.35217246879392 -0.5 L 122.39874248439696 -0.5 Z"/><text text-anchor="middle" pointer-events="none" font-size="8px" fill="#000000" x="105.17608623439696" y="3" font-family="sans-serif">ORIGIN</text></g><g class="relationship" transform="translate(-9.223822996490167 -462.4530246275984) rotate(430.5001973358891)"><path class="outline" fill="#A5ABB6" stroke="none" d="M 25 0.5 L 56.98006746587065 0.5 L 56.98006746587065 -0.5 L 25 -0.5 Z M 116.17147371587065 0.5 L 148.1515411817413 0.5 L 148.1515411817413 3.5 L 155.1515411817413 0 L 148.1515411817413 -3.5 L 148.1515411817413 -0.5 L 116.17147371587065 -0.5 Z"/><text text-anchor="middle" pointer-events="none" font-size="8px" fill="#000000" x="86.57577059087065" y="3" font-family="sans-serif">DESTINATION</text></g><g class="relationship" transform="translate(-13.407585421864493 -364.22370693302537) rotate(378.94702191804726)"><path class="outline" fill="#A5ABB6" stroke="none" d="M 25 0.5 L 63.23205136230243 0.5 L 63.23205136230243 -0.5 L 25 -0.5 Z M 97.67736386230243 0.5 L 135.90941522460486 0.5 L 135.90941522460486 3.5 L 142.90941522460486 0 L 135.90941522460486 -3.5 L 135.90941522460486 -0.5 L 97.67736386230243 -0.5 Z"/><text text-anchor="middle" pointer-events="none" font-size="8px" fill="#000000" x="80.45470761230243" y="3" font-family="sans-serif">ORIGIN</text></g><g class="relationship" transform="translate(-13.407585421864493 -364.22370693302537) rotate(392.1425884537809)"><path class="outline" fill="#A5ABB6" stroke="none" d="M 25 0.5 L 93.59381853142965 0.5 L 93.59381853142965 -0.5 L 25 -0.5 Z M 152.78522478142963 0.5 L 221.3790433128593 0.5 L 221.3790433128593 3.5 L 228.3790433128593 0 L 221.3790433128593 -3.5 L 221.3790433128593 -0.5 L 152.78522478142963 -0.5 Z"/><text text-anchor="middle" pointer-events="none" font-size="8px" fill="#000000" x="123.18952165642965" y="3" font-family="sans-serif">DESTINATION</text></g><g class="relationship" transform="translate(-110.573461775098 -340.82169889582246) rotate(366.9309722451473)"><path class="outline" fill="#A5ABB6" stroke="none" d="M 25 0.5 L 108.20845245662335 0.5 L 108.20845245662335 -0.5 L 25 -0.5 Z M 142.65376495662335 0.5 L 225.8622174132467 0.5 L 225.8622174132467 3.5 L 232.8622174132467 0 L 225.8622174132467 -3.5 L 225.8622174132467 -0.5 L 142.65376495662335 -0.5 Z"/><text text-anchor="middle" pointer-events="none" font-size="8px" fill="#000000" x="125.43110870662335" y="3" font-family="sans-serif">ORIGIN</text></g><g class="relationship" transform="translate(-110.573461775098 -340.82169889582246) rotate(388.98331176517803)"><path class="outline" fill="#A5ABB6" stroke="none" d="M 25 0.5 L 93.00671222070054 0.5 L 93.00671222070054 -0.5 L 25 -0.5 Z M 152.19811847070054 0.5 L 220.20483069140107 0.5 L 220.20483069140107 3.5 L 227.20483069140107 0 L 220.20483069140107 -3.5 L 220.20483069140107 -0.5 L 152.19811847070054 -0.5 Z"/><text text-anchor="middle" pointer-events="none" font-size="8px" fill="#000000" x="122.60241534570054" y="3" font-family="sans-serif">DESTINATION</text></g><g class="relationship" transform="translate(267.16886170592466 -416.0187106947509) rotate(498.87537310983294)"><path class="outline" fill="#A5ABB6" stroke="none" d="M 25 0.5 L 60.100127489199735 0.5 L 60.100127489199735 -0.5 L 25 -0.5 Z M 94.54543998919974 0.5 L 129.64556747839947 0.5 L 129.64556747839947 3.5 L 136.64556747839947 0 L 129.64556747839947 -3.5 L 129.64556747839947 -0.5 L 94.54543998919974 -0.5 Z"/><text text-anchor="middle" pointer-events="none" font-size="8px" fill="#000000" x="77.32278373919974" y="3" transform="rotate(180 77.32278373919974 0)" font-family="sans-serif">ORIGIN</text></g><g class="relationship" transform="translate(267.16886170592466 -416.0187106947509) rotate(469.48777621849104)"><path class="outline" fill="#A5ABB6" stroke="none" d="M 25 0.5 L 65.87388699738143 0.5 L 65.87388699738143 -0.5 L 25 -0.5 Z M 125.06529324738143 0.5 L 165.93918024476287 0.5 L 165.93918024476287 3.5 L 172.93918024476287 0 L 165.93918024476287 -3.5 L 165.93918024476287 -0.5 L 125.06529324738143 -0.5 Z"/><text text-anchor="middle" pointer-events="none" font-size="8px" fill="#000000" x="95.46959012238143" y="3" transform="rotate(180 95.46959012238143 0)" font-family="sans-serif">DESTINATION</text></g><g class="relationship" transform="translate(-43.98424577030832 -271.6527346907484) rotate(348.63942808185675)"><path class="outline" fill="#A5ABB6" stroke="none" d="M 25 0.5 L 75.86407644365481 0.5 L 75.86407644365481 -0.5 L 25 -0.5 Z M 110.30938894365481 0.5 L 161.17346538730962 0.5 L 161.17346538730962 3.5 L 168.17346538730962 0 L 161.17346538730962 -3.5 L 161.17346538730962 -0.5 L 110.30938894365481 -0.5 Z"/><text text-anchor="middle" pointer-events="none" font-size="8px" fill="#000000" x="93.08673269365481" y="3" font-family="sans-serif">ORIGIN</text></g><g class="relationship" transform="translate(-43.98424577030832 -271.6527346907484) rotate(369.7760110777126)"><path class="outline" fill="#A5ABB6" stroke="none" d="M 25 0.5 L 91.26993077915209 0.5 L 91.26993077915209 -0.5 L 25 -0.5 Z M 150.4613370291521 0.5 L 216.73126780830418 0.5 L 216.73126780830418 3.5 L 223.73126780830418 0 L 216.73126780830418 -3.5 L 216.73126780830418 -0.5 L 150.4613370291521 -0.5 Z"/><text text-anchor="middle" pointer-events="none" font-size="8px" fill="#000000" x="120.86563390415209" y="3" font-family="sans-serif">DESTINATION</text></g><g class="relationship" transform="translate(-73.06180203544284 -176.420000904553) rotate(328.612946721687)"><path class="outline" fill="#A5ABB6" stroke="none" d="M 25 0.5 L 107.23460419689789 0.5 L 107.23460419689789 -0.5 L 25 -0.5 Z M 141.6799166968979 0.5 L 223.91452089379578 0.5 L 223.91452089379578 3.5 L 230.91452089379578 0 L 223.91452089379578 -3.5 L 223.91452089379578 -0.5 L 141.6799166968979 -0.5 Z"/><text text-anchor="middle" pointer-events="none" font-size="8px" fill="#000000" x="124.45726044689789" y="3" font-family="sans-serif">ORIGIN</text></g><g class="relationship" transform="translate(-73.06180203544284 -176.420000904553) rotate(349.06033038355395)"><path class="outline" fill="#A5ABB6" stroke="none" d="M 25 0.5 L 106.54033334667619 0.5 L 106.54033334667619 -0.5 L 25 -0.5 Z M 165.7317395966762 0.5 L 247.27207294335238 0.5 L 247.27207294335238 3.5 L 254.27207294335238 0 L 247.27207294335238 -3.5 L 247.27207294335238 -0.5 L 165.7317395966762 -0.5 Z"/><text text-anchor="middle" pointer-events="none" font-size="8px" fill="#000000" x="136.1360364716762" y="3" font-family="sans-serif">DESTINATION</text></g><g class="relationship" transform="translate(21.63497893019501 -199.05309793827965) rotate(318.2028637074387)"><path class="outline" fill="#A5ABB6" stroke="none" d="M 25 0.5 L 62.28729627581433 0.5 L 62.28729627581433 -0.5 L 25 -0.5 Z M 96.73260877581433 0.5 L 134.01990505162865 0.5 L 134.01990505162865 3.5 L 141.01990505162865 0 L 134.01990505162865 -3.5 L 134.01990505162865 -0.5 L 96.73260877581433 -0.5 Z"/><text text-anchor="middle" pointer-events="none" font-size="8px" fill="#000000" x="79.50995252581433" y="3" font-family="sans-serif">ORIGIN</text></g><g class="relationship" transform="translate(21.63497893019501 -199.05309793827965) rotate(287.53788940354144)"><path class="outline" fill="#A5ABB6" stroke="none" d="M 25 0.5 L 63.61511726409502 0.5 L 63.61511726409502 -0.5 L 25 -0.5 Z M 122.80652351409502 0.5 L 161.42164077819004 0.5 L 161.42164077819004 3.5 L 168.42164077819004 0 L 161.42164077819004 -3.5 L 161.42164077819004 -0.5 L 122.80652351409502 -0.5 Z"/><text text-anchor="middle" pointer-events="none" font-size="8px" fill="#000000" x="93.21082038909502" y="3" font-family="sans-serif">DESTINATION</text></g><g class="relationship" transform="translate(56.452963873775786 -28.1173836615308) rotate(287.53095816659913)"><path class="outline" fill="#A5ABB6" stroke="none" d="M 25 0.5 L 126.9287023485785 0.5 L 126.9287023485785 -0.5 L 25 -0.5 Z M 161.3740148485785 0.5 L 263.302717197157 0.5 L 263.302717197157 3.5 L 270.302717197157 0 L 263.302717197157 -3.5 L 263.302717197157 -0.5 L 161.3740148485785 -0.5 Z"/><text text-anchor="middle" pointer-events="none" font-size="8px" fill="#000000" x="144.1513585985785" y="3" font-family="sans-serif">ORIGIN</text></g><g class="relationship" transform="translate(56.452963873775786 -28.1173836615308) rotate(392.5513122256644)"><path class="outline" fill="#A5ABB6" stroke="none" d="M 25 0.5 L 57.80371645699255 0.5 L 57.80371645699255 -0.5 L 25 -0.5 Z M 116.99512270699255 0.5 L 149.7988391639851 0.5 L 149.7988391639851 3.5 L 156.7988391639851 0 L 149.7988391639851 -3.5 L 149.7988391639851 -0.5 L 116.99512270699255 -0.5 Z"/><text text-anchor="middle" pointer-events="none" font-size="8px" fill="#000000" x="87.39941958199255" y="3" font-family="sans-serif">DESTINATION</text></g><g class="relationship" transform="translate(-3.8328779090880043 -105.69003281175075) rotate(306.1855815232677)"><path class="outline" fill="#A5ABB6" stroke="none" d="M 25 0.5 L 105.6633453237127 0.5 L 105.6633453237127 -0.5 L 25 -0.5 Z M 140.1086578237127 0.5 L 220.7720031474254 0.5 L 220.7720031474254 3.5 L 227.7720031474254 0 L 220.7720031474254 -3.5 L 220.7720031474254 -0.5 L 140.1086578237127 -0.5 Z"/><text text-anchor="middle" pointer-events="none" font-size="8px" fill="#000000" x="122.8860015737127" y="3" font-family="sans-serif">ORIGIN</text></g><g class="relationship" transform="translate(-3.8328779090880043 -105.69003281175075) rotate(328.882737159335)"><path class="outline" fill="#A5ABB6" stroke="none" d="M 25 0.5 L 86.61306840998174 0.5 L 86.61306840998174 -0.5 L 25 -0.5 Z M 145.80447465998174 0.5 L 207.41754306996347 0.5 L 207.41754306996347 3.5 L 214.41754306996347 0 L 207.41754306996347 -3.5 L 207.41754306996347 -0.5 L 145.80447465998174 -0.5 Z"/><text text-anchor="middle" pointer-events="none" font-size="8px" fill="#000000" x="116.20877153498174" y="3" font-family="sans-serif">DESTINATION</text></g><g class="relationship" transform="translate(152.6973618085774 -41.873333754738155) rotate(268.44023140426935)"><path class="outline" fill="#A5ABB6" stroke="none" d="M 25 0.5 L 113.2425991182655 0.5 L 113.2425991182655 -0.5 L 25 -0.5 Z M 147.6879116182655 0.5 L 235.930510736531 0.5 L 235.930510736531 3.5 L 242.930510736531 0 L 235.930510736531 -3.5 L 235.930510736531 -0.5 L 147.6879116182655 -0.5 Z"/><text text-anchor="middle" pointer-events="none" font-size="8px" fill="#000000" x="130.4652553682655" y="3" transform="rotate(180 130.4652553682655 0)" font-family="sans-serif">ORIGIN</text></g><g class="relationship" transform="translate(152.6973618085774 -41.873333754738155) rotate(469.6132798339423)"><path class="outline" fill="#A5ABB6" stroke="none" d="M 25 0.5 L 55.13046540362322 0.5 L 55.13046540362322 -0.5 L 25 -0.5 Z M 114.32187165362322 0.5 L 144.45233705724644 0.5 L 144.45233705724644 3.5 L 151.45233705724644 0 L 144.45233705724644 -3.5 L 144.45233705724644 -0.5 L 114.32187165362322 -0.5 Z"/><text text-anchor="middle" pointer-events="none" font-size="8px" fill="#000000" x="84.72616852862322" y="3" transform="rotate(180 84.72616852862322 0)" font-family="sans-serif">DESTINATION</text></g></g><g class="layer nodes"><g class="node" aria-label="graph-node5" transform="translate(145.40436425527668,-309.70456936818545)"><circle class="outline" cx="0" cy="0" r="25" fill="#8DCC93" stroke="#5db665" stroke-width="2px"/><text class="caption" text-anchor="middle" pointer-events="none" x="0" y="5" font-size="10px" fill="#2A2C34" font-family="sans-serif"> LAX</text></g><g class="node" aria-label="graph-node13" transform="translate(50.91141226952818,-292.6345001090487)"><circle class="outline" cx="0" cy="0" r="25" fill="#8DCC93" stroke="#5db665" stroke-width="2px"/><text class="caption" text-anchor="middle" pointer-events="none" x="0" y="5" font-size="10px" fill="#2A2C34" font-family="sans-serif"> SMF</text></g><g class="node" aria-label="graph-node41" transform="translate(209.69300879666747,69.70033739862608)"><circle class="outline" cx="0" cy="0" r="25" fill="#8DCC93" stroke="#5db665" stroke-width="2px"/><text class="caption" text-anchor="middle" pointer-events="none" x="0" y="5" font-size="10px" fill="#2A2C34" font-family="sans-serif"> FAT</text></g><g class="node" aria-label="graph-node25" transform="translate(502.4037483882505,-153.86967764429264)"><circle class="outline" cx="0" cy="0" r="25" fill="#8DCC93" stroke="#5db665" stroke-width="2px"/><text class="caption" text-anchor="middle" pointer-events="none" x="0" y="5" font-size="10px" fill="#2A2C34" font-family="sans-serif"> LAS</text></g><g class="node" aria-label="graph-node42" transform="translate(110.04545734112553,-218.61462401033356)"><circle class="outline" cx="0" cy="0" r="25" fill="#8DCC93" stroke="#5db665" stroke-width="2px"/><text class="caption" text-anchor="middle" pointer-events="none" x="0" y="5" font-size="10px" fill="#2A2C34" font-family="sans-serif"> TUS</text></g><g class="node" aria-label="graph-node40" transform="translate(201.1352142990038,-229.41893447273293)"><circle class="outline" cx="0" cy="0" r="25" fill="#8DCC93" stroke="#5db665" stroke-width="2px"/><text class="caption" text-anchor="middle" pointer-events="none" x="0" y="5" font-size="10px" fill="#2A2C34" font-family="sans-serif"> ABQ</text></g><g class="node" aria-label="graph-node1" transform="translate(79.91996406271231,-383.48409215950437)"><circle class="outline" cx="0" cy="0" r="25" fill="#8DCC93" stroke="#5db665" stroke-width="2px"/><text class="caption" text-anchor="middle" pointer-events="none" x="0" y="5" font-size="10px" fill="#2A2C34" font-family="sans-serif"> EWR</text></g><g class="node" aria-label="graph-node2" transform="translate(93.46762209312014,124.34118181536266)"><circle class="outline" cx="0" cy="0" r="25" fill="#8DCC93" stroke="#5db665" stroke-width="2px"/><text class="caption" text-anchor="middle" pointer-events="none" x="0" y="5" font-size="10px" fill="#2A2C34" font-family="sans-serif"> IAH</text></g><g class="node" aria-label="graph-node1003" transform="translate(92.37769437269309,-121.80679414693057)"><circle class="outline" cx="0" cy="0" r="25" fill="#ECB5C9" stroke="#da7298" stroke-width="2px"/><text class="caption" text-anchor="middle" pointer-events="none" x="0" y="0" font-size="10px" fill="#2A2C34" font-family="sans-serif"> 11/4/2015</text><text class="caption" text-anchor="middle" pointer-events="none" x="0" y="10" font-size="10px" fill="#2A2C34" font-family="sans-serif"> 05:06:…</text></g><g class="node" aria-label="graph-node963" transform="translate(189.77347855586498,-132.0738235208106)"><circle class="outline" cx="0" cy="0" r="25" fill="#ECB5C9" stroke="#da7298" stroke-width="2px"/><text class="caption" text-anchor="middle" pointer-events="none" x="0" y="0" font-size="10px" fill="#2A2C34" font-family="sans-serif"> 11/4/2015</text><text class="caption" text-anchor="middle" pointer-events="none" x="0" y="10" font-size="10px" fill="#2A2C34" font-family="sans-serif"> 15:13:…</text></g><g class="node" aria-label="graph-node659" transform="translate(395.26423527474935,-267.44148537464827)"><circle class="outline" cx="0" cy="0" r="25" fill="#ECB5C9" stroke="#da7298" stroke-width="2px"/><text class="caption" text-anchor="middle" pointer-events="none" x="0" y="5" font-size="10px" fill="#2A2C34" font-family="sans-serif"> 11/29/20…</text></g><g class="node" aria-label="graph-node995" transform="translate(242.48008912460352,-319.7941151255231)"><circle class="outline" cx="0" cy="0" r="25" fill="#ECB5C9" stroke="#da7298" stroke-width="2px"/><text class="caption" text-anchor="middle" pointer-events="none" x="0" y="0" font-size="10px" fill="#2A2C34" font-family="sans-serif"> 11/2/2015</text><text class="caption" text-anchor="middle" pointer-events="none" x="0" y="10" font-size="10px" fill="#2A2C34" font-family="sans-serif"> 11:49:…</text></g><g class="node" aria-label="graph-node979" transform="translate(300.3413350854752,-239.86468698460456)"><circle class="outline" cx="0" cy="0" r="25" fill="#ECB5C9" stroke="#da7298" stroke-width="2px"/><text class="caption" text-anchor="middle" pointer-events="none" x="0" y="0" font-size="10px" fill="#2A2C34" font-family="sans-serif"> 11/1/2015</text><text class="caption" text-anchor="middle" pointer-events="none" x="0" y="10" font-size="10px" fill="#2A2C34" font-family="sans-serif"> 05:51:…</text></g><g class="node" aria-label="graph-node975" transform="translate(337.1990032155495,-347.0466418529891)"><circle class="outline" cx="0" cy="0" r="25" fill="#ECB5C9" stroke="#da7298" stroke-width="2px"/><text class="caption" text-anchor="middle" pointer-events="none" x="0" y="0" font-size="10px" fill="#2A2C34" font-family="sans-serif"> 11/2/2015</text><text class="caption" text-anchor="middle" pointer-events="none" x="0" y="10" font-size="10px" fill="#2A2C34" font-family="sans-serif"> 15:15:…</text></g><g class="node" aria-label="graph-node951" transform="translate(288.2283042138602,-141.85102699482022)"><circle class="outline" cx="0" cy="0" r="25" fill="#ECB5C9" stroke="#da7298" stroke-width="2px"/><text class="caption" text-anchor="middle" pointer-events="none" x="0" y="0" font-size="10px" fill="#2A2C34" font-family="sans-serif"> 11/3/2015</text><text class="caption" text-anchor="middle" pointer-events="none" x="0" y="10" font-size="10px" fill="#2A2C34" font-family="sans-serif"> 11:45:…</text></g><g class="node" aria-label="graph-node959" transform="translate(249.59140473117182,-53.34335027602611)"><circle class="outline" cx="0" cy="0" r="25" fill="#ECB5C9" stroke="#da7298" stroke-width="2px"/><text class="caption" text-anchor="middle" pointer-events="none" x="0" y="0" font-size="10px" fill="#2A2C34" font-family="sans-serif"> 11/1/2015</text><text class="caption" text-anchor="middle" pointer-events="none" x="0" y="10" font-size="10px" fill="#2A2C34" font-family="sans-serif"> 02:27:…</text></g><g class="node" aria-label="graph-node999" transform="translate(86.69716114385224,-483.2910945727175)"><circle class="outline" cx="0" cy="0" r="25" fill="#ECB5C9" stroke="#da7298" stroke-width="2px"/><text class="caption" text-anchor="middle" pointer-events="none" x="0" y="0" font-size="10px" fill="#2A2C34" font-family="sans-serif"> 11/1/2015</text><text class="caption" text-anchor="middle" pointer-events="none" x="0" y="10" font-size="10px" fill="#2A2C34" font-family="sans-serif"> 12:26:…</text></g><g class="node" aria-label="graph-node931" transform="translate(168.93392140780435,-428.87573910837267)"><circle class="outline" cx="0" cy="0" r="25" fill="#ECB5C9" stroke="#da7298" stroke-width="2px"/><text class="caption" text-anchor="middle" pointer-events="none" x="0" y="0" font-size="10px" fill="#2A2C34" font-family="sans-serif"> 11/3/2015</text><text class="caption" text-anchor="middle" pointer-events="none" x="0" y="10" font-size="10px" fill="#2A2C34" font-family="sans-serif"> 21:46:…</text></g><g class="node" aria-label="graph-node1007" transform="translate(-9.223822996490167,-462.4530246275984)"><circle class="outline" cx="0" cy="0" r="25" fill="#ECB5C9" stroke="#da7298" stroke-width="2px"/><text class="caption" text-anchor="middle" pointer-events="none" x="0" y="0" font-size="10px" fill="#2A2C34" font-family="sans-serif"> 11/3/2015</text><text class="caption" text-anchor="middle" pointer-events="none" x="0" y="10" font-size="10px" fill="#2A2C34" font-family="sans-serif"> 13:44:…</text></g><g class="node" aria-label="graph-node927" transform="translate(-13.407585421864493,-364.22370693302537)"><circle class="outline" cx="0" cy="0" r="25" fill="#ECB5C9" stroke="#da7298" stroke-width="2px"/><text class="caption" text-anchor="middle" pointer-events="none" x="0" y="0" font-size="10px" fill="#2A2C34" font-family="sans-serif"> 11/1/2015</text><text class="caption" text-anchor="middle" pointer-events="none" x="0" y="10" font-size="10px" fill="#2A2C34" font-family="sans-serif"> 05:43:…</text></g><g class="node" aria-label="graph-node983" transform="translate(-110.573461775098,-340.82169889582246)"><circle class="outline" cx="0" cy="0" r="25" fill="#ECB5C9" stroke="#da7298" stroke-width="2px"/><text class="caption" text-anchor="middle" pointer-events="none" x="0" y="0" font-size="10px" fill="#2A2C34" font-family="sans-serif"> 11/2/2015</text><text class="caption" text-anchor="middle" pointer-events="none" x="0" y="10" font-size="10px" fill="#2A2C34" font-family="sans-serif"> 09:52:…</text></g><g class="node" aria-label="graph-node971" transform="translate(267.16886170592466,-416.0187106947509)"><circle class="outline" cx="0" cy="0" r="25" fill="#ECB5C9" stroke="#da7298" stroke-width="2px"/><text class="caption" text-anchor="middle" pointer-events="none" x="0" y="0" font-size="10px" fill="#2A2C34" font-family="sans-serif"> 11/1/2015</text><text class="caption" text-anchor="middle" pointer-events="none" x="0" y="10" font-size="10px" fill="#2A2C34" font-family="sans-serif"> 17:17:…</text></g><g class="node" aria-label="graph-node919" transform="translate(-43.98424577030832,-271.6527346907484)"><circle class="outline" cx="0" cy="0" r="25" fill="#ECB5C9" stroke="#da7298" stroke-width="2px"/><text class="caption" text-anchor="middle" pointer-events="none" x="0" y="0" font-size="10px" fill="#2A2C34" font-family="sans-serif"> 11/2/2015</text><text class="caption" text-anchor="middle" pointer-events="none" x="0" y="10" font-size="10px" fill="#2A2C34" font-family="sans-serif"> 04:43:…</text></g><g class="node" aria-label="graph-node923" transform="translate(-73.06180203544284,-176.420000904553)"><circle class="outline" cx="0" cy="0" r="25" fill="#ECB5C9" stroke="#da7298" stroke-width="2px"/><text class="caption" text-anchor="middle" pointer-events="none" x="0" y="0" font-size="10px" fill="#2A2C34" font-family="sans-serif"> 11/4/2015</text><text class="caption" text-anchor="middle" pointer-events="none" x="0" y="10" font-size="10px" fill="#2A2C34" font-family="sans-serif"> 15:09:…</text></g><g class="node" aria-label="graph-node135" transform="translate(21.63497893019501,-199.05309793827965)"><circle class="outline" cx="0" cy="0" r="25" fill="#ECB5C9" stroke="#da7298" stroke-width="2px"/><text class="caption" text-anchor="middle" pointer-events="none" x="0" y="5" font-size="10px" fill="#2A2C34" font-family="sans-serif"> 11/30/20…</text></g><g class="node" aria-label="graph-node955" transform="translate(56.452963873775786,-28.1173836615308)"><circle class="outline" cx="0" cy="0" r="25" fill="#ECB5C9" stroke="#da7298" stroke-width="2px"/><text class="caption" text-anchor="middle" pointer-events="none" x="0" y="0" font-size="10px" fill="#2A2C34" font-family="sans-serif"> 11/2/2015</text><text class="caption" text-anchor="middle" pointer-events="none" x="0" y="10" font-size="10px" fill="#2A2C34" font-family="sans-serif"> 09:18:…</text></g><g class="node" aria-label="graph-node967" transform="translate(-3.8328779090880043,-105.69003281175075)"><circle class="outline" cx="0" cy="0" r="25" fill="#ECB5C9" stroke="#da7298" stroke-width="2px"/><text class="caption" text-anchor="middle" pointer-events="none" x="0" y="0" font-size="10px" fill="#2A2C34" font-family="sans-serif"> 11/3/2015</text><text class="caption" text-anchor="middle" pointer-events="none" x="0" y="10" font-size="10px" fill="#2A2C34" font-family="sans-serif"> 23:26:…</text></g><g class="node" aria-label="graph-node103" transform="translate(152.6973618085774,-41.873333754738155)"><circle class="outline" cx="0" cy="0" r="25" fill="#ECB5C9" stroke="#da7298" stroke-width="2px"/><text class="caption" text-anchor="middle" pointer-events="none" x="0" y="5" font-size="10px" fill="#2A2C34" font-family="sans-serif"> 11/30/20…</text></g></g></svg>