<svg xmlns="http://www.w3.org/2000/svg" width="211.1533203125" height="211.48831176757812" viewBox="-150.22378540039062 -149.63992309570312 211.1533203125 211.48831176757812"><title>Neo4j Graph Visualization</title><desc>Created using Neo4j (http://www.neo4j.com/)</desc><g class="layer relationships"><g class="relationship" transform="translate(-23.764543055794203 -120.63991947488749) rotate(455.1092760070525)"><path class="outline" fill="#A5ABB6" stroke="none" d="M 25 0.5 L 63.88233250175493 0.5 L 63.88233250175493 -0.5 L 25 -0.5 Z M 83.21827000175493 0.5 L 122.10060250350986 0.5 L 122.10060250350986 3.5 L 129.10060250350986 0 L 122.10060250350986 -3.5 L 122.10060250350986 -0.5 L 83.21827000175493 -0.5 Z"/><text text-anchor="middle" pointer-events="none" font-size="8px" fill="#000000" x="73.55030125175493" y="3" transform="rotate(180 73.55030125175493 0)" font-family="sans-serif">trek</text></g><g class="relationship" transform="translate(-121.22378810836238 -20.99160861164957) rotate(314.3637023444712)"><path class="outline" fill="#A5ABB6" stroke="none" d="M 25 0.5 L 56.52437355550914 0.5 L 56.52437355550914 -0.5 L 25 -0.5 Z M 75.86031105550914 0.5 L 107.38468461101829 0.5 L 107.38468461101829 3.5 L 114.38468461101829 0 L 107.38468461101829 -3.5 L 107.38468461101829 -0.5 L 75.86031105550914 -0.5 Z"/><text text-anchor="middle" pointer-events="none" font-size="8px" fill="#000000" x="66.19234230550914" y="3" font-family="sans-serif">trek</text></g><g class="relationship" transform="translate(31.92953571230366 -38.07701231416809) rotate(533.634544541107)"><path class="outline" fill="#A5ABB6" stroke="none" d="M 21.40063509461097,12.933012701892217 L 21.90063509461097,12.06698729810778 A 107.71293846267423 107.71293846267423 0 0 0 63.80505981170326,25.83261945968532 L 63.69409779836643,26.826444107999222 A 108.71293846267423 108.71293846267423 0 0 1 21.40063509461097,12.933012701892217 Z M 83.08891534785337,27.2502671976587 L 83.021473412003,26.252543996921773 A 107.71293846267423 107.71293846267423 0 0 0 125.48723298391347,14.330601887558748 L 124.1021590261958,11.669479918980025 L 131.92736323688345,11.542282980980634 L 127.33399826087037,17.87876451233038 L 125.94892430315271,15.217642543751657 A 108.71293846267423 108.71293846267423 0 0 1 83.08891534785337,27.2502671976587"/><text text-anchor="middle" pointer-events="none" font-size="8px" fill="#000000" x="73.39295754900715" y="29.971956691841655" transform="rotate(180 73.39295754900715 26.971956691841655)" font-family="sans-serif">trek</text></g><g class="relationship" transform="translate(31.92953571230366 -38.07701231416809) rotate(533.634544541107)"><path class="outline" fill="#A5ABB6" stroke="none" d="M 25 0.5 L 62.5458304458531 0.5 L 62.5458304458531 -0.5 L 25 -0.5 Z M 84.5575491958531 0.5 L 122.1033796417062 0.5 L 122.1033796417062 3.5 L 129.1033796417062 0 L 122.1033796417062 -3.5 L 122.1033796417062 -0.5 L 84.5575491958531 -0.5 Z"/><text text-anchor="middle" pointer-events="none" font-size="8px" fill="#000000" x="73.5516898208531" y="3" transform="rotate(180 73.5516898208531 0)" font-family="sans-serif">road</text></g><g class="relationship" transform="translate(31.92953571230366 -38.07701231416809) rotate(533.634544541107)"><path class="outline" fill="#A5ABB6" stroke="none" d="M 21.40063509461097,-12.933012701892217 L 21.90063509461097,-12.06698729810778 A 107.71293846267423 107.71293846267423 0 0 1 43.198447843670245,-21.45914198700102 L 42.89617536882211,-22.412363551459762 A 108.71293846267423 108.71293846267423 0 0 0 21.40063509461097,-12.933012701892217 Z M 104.05980845209345,-23.748935028969584 L 103.79946497755971,-22.78341896215987 A 107.71293846267423 107.71293846267423 0 0 1 125.48723298391347,-14.330601887558748 L 124.1021590261958,-11.669479918980025 L 131.92736323688345,-11.542282980980634 L 127.33399826087037,-17.87876451233038 L 125.94892430315271,-15.217642543751657 A 108.71293846267423 108.71293846267423 0 0 0 104.05980845209345,-23.748935028969584"/><text text-anchor="middle" pointer-events="none" font-size="8px" fill="#000000" x="73.39295754900714" y="-23.971956691841655" transform="rotate(180 73.39295754900714 -26.971956691841655)" font-family="sans-serif">PublicTransport</text></g></g><g class="layer nodes"><g class="node" aria-label="graph-node3" transform="translate(-37.488057217667645,32.848389040756835)"><circle class="outline" cx="0" cy="0" r="25" fill="#57C7E3" stroke="#23b3d7" stroke-width="2px"/><text class="caption" text-anchor="middle" pointer-events="none" x="0" y="5" font-size="10px" fill="#2A2C34" font-family="sans-serif"> Sandakp…</text></g><g class="node" aria-label="graph-node1" transform="translate(31.92953571230366,-38.07701231416809)"><circle class="outline" cx="0" cy="0" r="25" fill="#D9C8AE" stroke="#c0a378" stroke-width="2px"/><text class="caption" text-anchor="middle" pointer-events="none" x="0" y="5" font-size="10px" fill="#2A2C34" font-family="sans-serif"> Darjeeling</text></g><g class="node" aria-label="graph-node2" transform="translate(-23.764543055794203,-120.63991947488749)"><circle class="outline" cx="0" cy="0" r="25" fill="#F16667" stroke="#eb2728" stroke-width="2px"/><text class="caption" text-anchor="middle" pointer-events="none" x="0" y="5" font-size="10px" fill="#FFFFFF" font-family="sans-serif"> BhikeBh…</text></g><g class="node" aria-label="graph-node0" transform="translate(-121.22378810836238,-20.99160861164957)"><circle class="outline" cx="0" cy="0" r="25" fill="#D9C8AE" stroke="#c0a378" stroke-width="2px"/><text class="caption" text-anchor="middle" pointer-events="none" x="0" y="5" font-size="10px" fill="#2A2C34" font-family="sans-serif"> Rimbik</text></g></g></svg>