<svg xmlns="http://www.w3.org/2000/svg" width="557.1500854492188" height="368.16143798828125" viewBox="-292.215087890625 -202.31771850585938 557.1500854492188 368.16143798828125"><title>Neo4j Graph Visualization</title><desc>Created using Neo4j (http://www.neo4j.com/)</desc><g class="layer relationships"><g class="relationship" transform="translate(91.86374998836637 -140.78360813763524) rotate(477.40175613184726)"><path class="outline" fill="#A5ABB6" stroke="none" d="M 25 0.5 L 83.82328507178256 0.5 L 83.82328507178256 -0.5 L 25 -0.5 Z M 103.15922257178256 0.5 L 161.98250764356513 0.5 L 161.98250764356513 3.5 L 168.98250764356513 0 L 161.98250764356513 -3.5 L 161.98250764356513 -0.5 L 103.15922257178256 -0.5 Z"/><text text-anchor="middle" pointer-events="none" font-size="8px" fill="#000000" x="93.49125382178256" y="3" transform="rotate(180 93.49125382178256 0)" font-family="sans-serif">trek</text></g><g class="relationship" transform="translate(235.9349802246229 -172.8574323536956) rotate(527.4492153606211)"><path class="outline" fill="#A5ABB6" stroke="none" d="M 21.40063509461097,12.933012701892217 L 21.90063509461097,12.06698729810778 A 101.09371704082533 101.09371704082533 0 0 0 60.552462486942204,24.90873322000536 L 60.43479908038967,25.901786754694427 A 102.09371704082533 102.09371704082533 0 0 1 21.40063509461097,12.933012701892217 Z M 79.8315538787956,26.343596227097095 L 79.75922758411461,25.34621520306581 A 101.09371704082533 101.09371704082533 0 0 0 118.95567177377336,14.277657845573096 L 117.57552136917498,11.613979024715196 L 125.40094742320818,11.501253371653192 L 120.79587231323787,17.82922960671696 L 119.41572190863948,15.165550785859061 A 102.09371704082533 102.09371704082533 0 0 1 79.8315538787956,26.343596227097095"/><text text-anchor="middle" pointer-events="none" font-size="8px" fill="#000000" x="70.13404334902545" y="29.084633334879072" transform="rotate(180 70.13404334902545 26.084633334879072)" font-family="sans-serif">trek</text></g><g class="relationship" transform="translate(164.12733374208713 -47.727434720389084) rotate(299.8499781426338)"><path class="outline" fill="#A5ABB6" stroke="none" d="M 21.40063509461097,-12.933012701892217 L 21.90063509461097,-12.06698729810778 A 97.703158012208 97.703158012208 0 0 1 58.88852732046971,-24.433774706209988 L 58.76710149328444,-25.426375214215284 A 98.703158012208 98.703158012208 0 0 0 21.40063509461097,-12.933012701892217 Z M 78.16485292878406,-25.877989082603477 L 78.08975260801061,-24.88081309922856 A 97.703158012208 97.703158012208 0 0 1 115.61309797161363,-14.248778729800042 L 114.23563326780253,-11.58371006468941 L 122.06116897417363,-11.47887253175923 L 117.44971757669511,-17.80220361661422 L 116.07225287288401,-15.137134951503588 A 98.703158012208 98.703158012208 0 0 0 78.16485292878406,-25.877989082603477"/><text text-anchor="middle" pointer-events="none" font-size="8px" fill="#000000" x="68.46649075872708" y="-22.630124210881192" font-family="sans-serif">trek</text></g><g class="relationship" transform="translate(94.76178720923632 69.11606916796568) rotate(300.69599397563235)"><path class="outline" fill="#A5ABB6" stroke="none" d="M 24.018736134675446,-6.953439040707552 L 24.277555179777966,-5.987513214418485 A 163.03043822591343 163.03043822591343 0 0 1 54.774036691214064,-11.122348231079627 L 54.702277693568305,-12.119770231166285 A 164.03043822591343 164.03043822591343 0 0 0 24.018736134675446,-6.953439040707552 Z M 74.08447588193232,-12.365945623434413 L 74.03807267506289,-11.367022832427892 A 163.03043822591343 163.03043822591343 0 0 1 104.65513165167584,-7.008397493138173 L 103.95252308588069,-4.0918342410774065 L 111.57754733411682,-5.855071381626275 L 105.59194307273604,-10.897148495885862 L 104.88933450694088,-7.980585243825096 A 164.03043822591343 164.03043822591343 0 0 0 74.08447588193232,-12.365945623434413"/><text text-anchor="middle" pointer-events="none" font-size="8px" fill="#000000" x="64.39608727860293" y="-9.02945206894401" font-family="sans-serif">trek</text></g><g class="relationship" transform="translate(94.76178720923632 69.11606916796568) rotate(300.69599397563235)"><path class="outline" fill="#A5ABB6" stroke="none" d="M 24.018736134675446,6.953439040707552 L 24.277555179777966,5.987513214418485 A 163.03043822591343 163.03043822591343 0 0 0 53.44408161290663,11.021195140512276 L 53.36416490500272,12.017996685353467 A 164.03043822591343 164.03043822591343 0 0 1 24.018736134675446,6.953439040707552 Z M 75.42474187299561,12.298190455738961 L 75.37016782902084,11.299680729334511 A 163.03043822591343 163.03043822591343 0 0 0 104.65513165167584,7.008397493138173 L 103.95252308588069,4.0918342410774065 L 111.57754733411682,5.855071381626275 L 105.59194307273604,10.897148495885862 L 104.88933450694088,7.980585243825096 A 164.03043822591343 164.03043822591343 0 0 1 75.42474187299561,12.298190455738961"/><text text-anchor="middle" pointer-events="none" font-size="8px" fill="#000000" x="64.39608727860296" y="15.02945206894401" font-family="sans-serif">road</text></g><g class="relationship" transform="translate(164.12733374208713 -47.727434720389084) rotate(299.8499781426338)"><path class="outline" fill="#A5ABB6" stroke="none" d="M 25 0.5 L 57.62917788338112 0.5 L 57.62917788338112 -0.5 L 25 -0.5 Z M 79.64089663338112 0.5 L 112.27007451676224 0.5 L 112.27007451676224 3.5 L 119.27007451676224 0 L 112.27007451676224 -3.5 L 112.27007451676224 -0.5 L 79.64089663338112 -0.5 Z"/><text text-anchor="middle" pointer-events="none" font-size="8px" fill="#000000" x="68.63503725838112" y="3" font-family="sans-serif">road</text></g><g class="relationship" transform="translate(164.12733374208713 -47.727434720389084) rotate(299.8499781426338)"><path class="outline" fill="#A5ABB6" stroke="none" d="M 21.40063509461097,12.933012701892217 L 21.90063509461097,12.06698729810778 A 97.703158012208 97.703158012208 0 0 0 45.64854451232114,21.87662301078734 L 45.391606352909164,22.84305085715664 A 98.703158012208 98.703158012208 0 0 1 21.40063509461097,12.933012701892217 Z M 91.64607933294157,23.919936574670302 L 91.43439547547428,22.94259838116318 A 97.703158012208 97.703158012208 0 0 0 115.61309797161363,14.248778729800042 L 114.23563326780253,11.58371006468941 L 122.06116897417363,11.47887253175923 L 117.44971757669511,17.80220361661422 L 116.07225287288401,15.137134951503588 A 98.703158012208 98.703158012208 0 0 1 91.64607933294157,23.919936574670302"/><text text-anchor="middle" pointer-events="none" font-size="8px" fill="#000000" x="68.46649075872712" y="28.630124210881192" font-family="sans-serif">twowheeler</text></g><g class="relationship" transform="translate(235.9349802246229 -172.8574323536956) rotate(527.4492153606211)"><path class="outline" fill="#A5ABB6" stroke="none" d="M 25 0.5 L 59.29327609017869 0.5 L 59.29327609017869 -0.5 L 25 -0.5 Z M 81.3049948401787 0.5 L 115.59827093035739 0.5 L 115.59827093035739 3.5 L 122.59827093035739 0 L 115.59827093035739 -3.5 L 115.59827093035739 -0.5 L 81.3049948401787 -0.5 Z"/><text text-anchor="middle" pointer-events="none" font-size="8px" fill="#000000" x="70.2991354651787" y="3" transform="rotate(180 70.2991354651787 0)" font-family="sans-serif">road</text></g><g class="relationship" transform="translate(235.9349802246229 -172.8574323536956) rotate(527.4492153606211)"><path class="outline" fill="#A5ABB6" stroke="none" d="M 21.40063509461097,-12.933012701892217 L 21.90063509461097,-12.06698729810778 A 101.09371704082533 101.09371704082533 0 0 1 47.2941852630459,-22.431767295348266 L 47.045373476435856,-23.400319149842346 A 102.09371704082533 102.09371704082533 0 0 0 21.40063509461097,-12.933012701892217 Z M 93.32098867536979,-24.454361712561678 L 93.1165344183855,-23.475485593330532 A 101.09371704082533 101.09371704082533 0 0 1 118.95567177377336,-14.277657845573096 L 117.57552136917498,-11.613979024715196 L 125.40094742320818,-11.501253371653192 L 120.79587231323787,-17.82922960671696 L 119.41572190863948,-15.165550785859061 A 102.09371704082533 102.09371704082533 0 0 0 93.32098867536979,-24.454361712561678"/><text text-anchor="middle" pointer-events="none" font-size="8px" fill="#000000" x="70.13404334902543" y="-23.084633334879072" transform="rotate(180 70.13404334902543 -26.084633334879072)" font-family="sans-serif">twowheeler</text></g><g class="relationship" transform="translate(-8.870206758231244 -67.36003829154416) rotate(323.91221670079506)"><path class="outline" fill="#A5ABB6" stroke="none" d="M 25 0.5 L 49.158491623522764 0.5 L 49.158491623522764 -0.5 L 25 -0.5 Z M 68.49442912352276 0.5 L 92.65292074704553 0.5 L 92.65292074704553 3.5 L 99.65292074704553 0 L 92.65292074704553 -3.5 L 92.65292074704553 -0.5 L 68.49442912352276 -0.5 Z"/><text text-anchor="middle" pointer-events="none" font-size="8px" fill="#000000" x="58.826460373522764" y="3" font-family="sans-serif">trek</text></g><g class="relationship" transform="translate(94.76178720923632 69.11606916796568) rotate(232.78908341001744)"><path class="outline" fill="#A5ABB6" stroke="none" d="M 21.40063509461097,12.933012701892217 L 21.90063509461097,12.06698729810778 A 125.23345842108625 125.23345842108625 0 0 0 51.69272137175499,24.466758738264275 L 51.43061375812486,25.43179738975816 A 126.23345842108625 126.23345842108625 0 0 1 21.40063509461097,12.933012701892217 Z M 112.77404534852917,26.641895476529015 L 112.5502007244746,25.667270633688517 A 125.23345842108625 125.23345842108625 0 0 0 142.8081301502318,14.452082566660565 L 141.41175972542695,11.796870779113231 L 149.23635272530973,11.636420206707127 L 144.66995738330493,17.99236495005701 L 143.2735869585001,15.337153162509676 A 126.23345842108625 126.23345842108625 0 0 1 112.77404534852917,26.641895476529015"/><text text-anchor="middle" pointer-events="none" font-size="8px" fill="#000000" x="82.03755157801521" y="32.32063254977811" transform="rotate(180 82.03755157801521 29.32063254977811)" font-family="sans-serif">PublicTransport</text></g><g class="relationship" transform="translate(94.76178720923632 69.11606916796568) rotate(232.78908341001744)"><path class="outline" fill="#A5ABB6" stroke="none" d="M 25 0.5 L 71.17569943576876 0.5 L 71.17569943576876 -0.5 L 25 -0.5 Z M 93.18741818576876 0.5 L 139.36311762153753 0.5 L 139.36311762153753 3.5 L 146.36311762153753 0 L 139.36311762153753 -3.5 L 139.36311762153753 -0.5 L 93.18741818576876 -0.5 Z"/><text text-anchor="middle" pointer-events="none" font-size="8px" fill="#000000" x="82.18155881076876" y="3" transform="rotate(180 82.18155881076876 0)" font-family="sans-serif">road</text></g><g class="relationship" transform="translate(94.76178720923632 69.11606916796568) rotate(232.78908341001744)"><path class="outline" fill="#A5ABB6" stroke="none" d="M 21.40063509461097,-12.933012701892217 L 21.90063509461097,-12.06698729810778 A 125.23345842108625 125.23345842108625 0 0 1 72.43654611227532,-28.26103098003084 L 72.34007973383947,-29.25636722363471 A 126.23345842108625 126.23345842108625 0 0 0 21.40063509461097,-12.933012701892217 Z M 91.73001351263748,-29.638864928116035 L 91.67287613164754,-28.64049860271558 A 125.23345842108625 125.23345842108625 0 0 1 142.8081301502318,-14.452082566660565 L 141.41175972542695,-11.796870779113231 L 149.23635272530973,-11.636420206707127 L 144.66995738330493,-17.99236495005701 L 143.2735869585001,-15.337153162509676 A 126.23345842108625 126.23345842108625 0 0 0 91.73001351263748,-29.638864928116035"/><text text-anchor="middle" pointer-events="none" font-size="8px" fill="#000000" x="82.03755157801518" y="-26.32063254977811" transform="rotate(180 82.03755157801518 -29.32063254977811)" font-family="sans-serif">trek</text></g><g class="relationship" transform="translate(-135.77554418854567 38.113986749040265) rotate(357.23611434334885)"><path class="outline" fill="#A5ABB6" stroke="none" d="M 24.018736134675446,6.953439040707552 L 24.277555179777966,5.987513214418485 A 168.24299069546566 168.24299069546566 0 0 0 56.09434014052959,11.311005094732792 L 56.02463319352536,12.30857260700418 A 169.24299069546566 169.24299069546566 0 0 1 24.018736134675446,6.953439040707552 Z M 75.40574955771869,12.55025749921424 L 75.36093999633134,11.551261952072878 A 168.24299069546566 168.24299069546566 0 0 0 107.30057977120009,7.0228204883793275 L 106.59662412529941,4.106582081011959 L 114.22246199604074,5.8662970491723065 L 108.23918729906767,10.911138364869151 L 107.53523165316699,7.994899957501783 A 169.24299069546566 169.24299069546566 0 0 1 75.40574955771869,12.55025749921424"/><text text-anchor="middle" pointer-events="none" font-size="8px" fill="#000000" x="65.71796322841854" y="15.207135534094931" font-family="sans-serif">trek</text></g><g class="relationship" transform="translate(-179.3394118256212 -93.05464001770038) rotate(431.6275845437197)"><path class="outline" fill="#A5ABB6" stroke="none" d="M 24.018736134675446,-6.953439040707552 L 24.277555179777966,-5.987513214418485 A 167.6301050240261 167.6301050240261 0 0 1 55.939041832094716,-11.288854949444215 L 55.869099878298556,-12.286406012347328 A 168.6301050240261 168.6301050240261 0 0 0 24.018736134675446,-6.953439040707552 Z M 75.25034103564221,-12.528610552622837 L 75.20534953105867,-11.529623183075415 A 167.6301050240261 167.6301050240261 0 0 1 106.9894279901507,-7.021151409553933 L 106.28562823248815,-4.104875376474393 L 113.91137202694672,-5.8649979805212435 L 107.9278276670341,-10.909519453659986 L 107.22402790937154,-7.993243420580446 A 168.6301050240261 168.6301050240261 0 0 0 75.25034103564221,-12.528610552622837"/><text text-anchor="middle" pointer-events="none" font-size="8px" fill="#000000" x="65.56248557044036" y="-9.186243516233617" font-family="sans-serif">trek</text></g><g class="relationship" transform="translate(-8.870206758231244 -67.36003829154416) rotate(188.57159395581397)"><path class="outline" fill="#A5ABB6" stroke="none" d="M 24.018736134675446,-6.953439040707552 L 24.277555179777966,-5.987513214418485 A 234.76869914028526 234.76869914028526 0 0 1 73.02395838165188,-13.679347167585092 L 72.97277520700561,-14.678036449911247 A 235.76869914028526 235.76869914028526 0 0 0 24.018736134675446,-6.953439040707552 Z M 92.34336250273279,-14.873923196539351 L 92.31238639429203,-13.874403071326327 A 234.76869914028526 234.76869914028526 0 0 1 141.20437334148824,-7.169945819769952 L 140.4866770578363,-4.257058584665887 L 148.12072627067303,-5.980802363766113 L 142.1613017196908,-11.05379546657537 L 141.44360543603887,-8.140908231471306 A 235.76869914028526 235.76869914028526 0 0 0 92.34336250273279,-14.873923196539351"/><text text-anchor="middle" pointer-events="none" font-size="8px" fill="#000000" x="82.66111219801735" y="-11.475033765685083" transform="rotate(180 82.66111219801735 -14.475033765685083)" font-family="sans-serif">trek</text></g><g class="relationship" transform="translate(-8.870206758231244 -67.36003829154416) rotate(188.57159395581397)"><path class="outline" fill="#A5ABB6" stroke="none" d="M 24.018736134675446,6.953439040707552 L 24.277555179777966,5.987513214418485 A 234.76869914028526 234.76869914028526 0 0 0 59.533528250350315,12.597354727521463 L 59.42488243191591,13.591435250485631 A 235.76869914028526 235.76869914028526 0 0 1 24.018736134675446,6.953439040707552 Z M 105.91045907738183,14.061524682220153 L 105.82193887329089,13.065450300726638 A 234.76869914028526 234.76869914028526 0 0 0 141.20437334148824,7.169945819769952 L 140.4866770578363,4.257058584665887 L 148.12072627067303,5.980802363766113 L 142.1613017196908,11.05379546657537 L 141.44360543603887,8.140908231471306 A 235.76869914028526 235.76869914028526 0 0 1 105.91045907738183,14.061524682220153"/><text text-anchor="middle" pointer-events="none" font-size="8px" fill="#000000" x="82.66111219801736" y="17.475033765685083" transform="rotate(180 82.66111219801736 14.475033765685083)" font-family="sans-serif">twowheeler</text></g><g class="relationship" transform="translate(-179.3394118256212 -93.05464001770038) rotate(431.6275845437197)"><path class="outline" fill="#A5ABB6" stroke="none" d="M 24.018736134675446,6.953439040707552 L 24.277555179777966,5.987513214418485 A 167.6301050240261 167.6301050240261 0 0 0 42.500814497828486,9.800057609213468 L 42.35070658975854,10.788727228416406 A 168.6301050240261 168.6301050240261 0 0 1 24.018736134675446,6.953439040707552 Z M 88.801939312894,11.369221499944189 L 88.67658494383073,10.377109468892883 A 167.6301050240261 167.6301050240261 0 0 0 106.9894279901507,7.021151409553933 L 106.28562823248815,4.104875376474393 L 113.91137202694672,5.8649979805212435 L 107.9278276670341,10.909519453659986 L 107.22402790937154,7.993243420580446 A 168.6301050240261 168.6301050240261 0 0 1 88.801939312894,11.369221499944189"/><text text-anchor="middle" pointer-events="none" font-size="8px" fill="#000000" x="65.56248557044044" y="15.186243516233617" font-family="sans-serif">twowheeler</text></g><g class="relationship" transform="translate(-135.77554418854567 38.113986749040265) rotate(357.23611434334885)"><path class="outline" fill="#A5ABB6" stroke="none" d="M 24.018736134675446,-6.953439040707552 L 24.277555179777966,-5.987513214418485 A 168.24299069546566 168.24299069546566 0 0 1 42.65537290246964,-9.827323568024411 L 42.5057876367164,-10.816072397742829 A 169.24299069546566 169.24299069546566 0 0 0 24.018736134675446,-6.953439040707552 Z M 88.95760883337645,-11.395332291131496 L 88.83272588626146,-10.403160809219287 A 168.24299069546566 168.24299069546566 0 0 1 107.30057977120009,-7.0228204883793275 L 106.59662412529941,-4.106582081011959 L 114.22246199604074,-5.8662970491723065 L 108.23918729906767,-10.911138364869151 L 107.53523165316699,-7.994899957501783 A 169.24299069546566 169.24299069546566 0 0 0 88.95760883337645,-11.395332291131496"/><text text-anchor="middle" pointer-events="none" font-size="8px" fill="#000000" x="65.71796322841848" y="-9.207135534094931" font-family="sans-serif">twowheeler</text></g><g class="relationship" transform="translate(-8.870206758231244 -67.36003829154416) rotate(366.474504316397)"><path class="outline" fill="#A5ABB6" stroke="none" d="M 25 0.5 L 73.88602044943507 0.5 L 73.88602044943507 -0.5 L 25 -0.5 Z M 93.22195794943507 0.5 L 142.10797839887013 0.5 L 142.10797839887013 3.5 L 149.10797839887013 0 L 142.10797839887013 -3.5 L 142.10797839887013 -0.5 L 93.22195794943507 -0.5 Z"/><text text-anchor="middle" pointer-events="none" font-size="8px" fill="#000000" x="83.55398919943507" y="3" font-family="sans-serif">trek</text></g><g class="relationship" transform="translate(-263.21507946694317 52.987780609276214) rotate(353.3429810258872)"><path class="outline" fill="#A5ABB6" stroke="none" d="M 21.40063509461097,12.933012701892217 L 21.90063509461097,12.06698729810778 A 81.39352073790735 81.39352073790735 0 0 0 50.90933326212412,22.128080480968336 L 50.765733844191615,23.11771637722991 A 82.39352073790735 82.39352073790735 0 0 1 21.40063509461097,12.933012701892217 Z M 70.16798844134568,23.623108431664747 L 70.07610508801912,22.627338654366056 A 81.39352073790735 81.39352073790735 0 0 0 99.56925443320698,14.090108007925073 L 98.20654673972751,11.417463672789577 L 106.03254249743638,11.355897445662231 L 101.38619802451294,17.653633788105736 L 100.02349033103347,14.98098945297024 A 82.39352073790735 82.39352073790735 0 0 1 70.16798844134568,23.623108431664747"/><text text-anchor="middle" pointer-events="none" font-size="8px" fill="#000000" x="60.46494737362756" y="26.443882962185214" font-family="sans-serif">trek</text></g><g class="relationship" transform="translate(-179.3394118256212 -93.05464001770038) rotate(479.86978538448363)"><path class="outline" fill="#A5ABB6" stroke="none" d="M 24.018736134675446,-6.953439040707552 L 24.277555179777966,-5.987513214418485 A 226.97412586589493 226.97412586589493 0 0 1 71.03428307806942,-13.404638883865971 L 70.98146428837009,-14.403242997343739 A 227.97412586589493 227.97412586589493 0 0 0 24.018736134675446,-6.953439040707552 Z M 90.35303360888946,-14.603590523723824 L 90.32087973229632,-13.604107593294259 A 226.97412586589493 226.97412586589493 0 0 1 137.2210107029091,-7.155613824156414 L 136.50465289608715,-4.242397132489754 L 144.13790928460165,-5.9696483901829644 L 138.17615444533837,-11.039902746378626 L 137.45979663851642,-8.126686054711968 A 227.97412586589493 227.97412586589493 0 0 0 90.35303360888946,-14.603590523723824"/><text text-anchor="middle" pointer-events="none" font-size="8px" fill="#000000" x="80.67029076340043" y="-11.20930419146714" transform="rotate(180 80.67029076340043 -14.20930419146714)" font-family="sans-serif">trek</text></g><g class="relationship" transform="translate(-179.3394118256212 -93.05464001770038) rotate(479.86978538448363)"><path class="outline" fill="#A5ABB6" stroke="none" d="M 24.018736134675446,6.953439040707552 L 24.277555179777966,5.987513214418485 A 226.97412586589493 226.97412586589493 0 0 0 57.54785485987391,12.287321670714192 L 57.435617719440785,13.28100312083157 A 227.97412586589493 227.97412586589493 0 0 1 24.018736134675446,6.953439040707552 Z M 103.91919335678134,13.76175247273764 L 103.82753202645253,12.76596223351936 A 226.97412586589493 226.97412586589493 0 0 0 137.2210107029091,7.155613824156414 L 136.50465289608715,4.242397132489754 L 144.13790928460165,5.9696483901829644 L 138.17615444533837,11.039902746378626 L 137.45979663851642,8.126686054711968 A 227.97412586589493 227.97412586589493 0 0 1 103.91919335678134,13.76175247273764"/><text text-anchor="middle" pointer-events="none" font-size="8px" fill="#000000" x="80.67029076340046" y="17.20930419146714" transform="rotate(180 80.67029076340046 14.20930419146714)" font-family="sans-serif">twowheeler</text></g><g class="relationship" transform="translate(-263.21507946694317 52.987780609276214) rotate(353.3429810258872)"><path class="outline" fill="#A5ABB6" stroke="none" d="M 25 0.5 L 49.646429936782766 0.5 L 49.646429936782766 -0.5 L 25 -0.5 Z M 71.65814868678277 0.5 L 96.30457862356553 0.5 L 96.30457862356553 3.5 L 103.30457862356553 0 L 96.30457862356553 -3.5 L 96.30457862356553 -0.5 L 71.65814868678277 -0.5 Z"/><text text-anchor="middle" pointer-events="none" font-size="8px" fill="#000000" x="60.652289311782766" y="3" font-family="sans-serif">road</text></g><g class="relationship" transform="translate(-263.21507946694317 52.987780609276214) rotate(353.3429810258872)"><path class="outline" fill="#A5ABB6" stroke="none" d="M 21.40063509461097,-12.933012701892217 L 21.90063509461097,-12.06698729810778 A 81.39352073790735 81.39352073790735 0 0 1 37.78831012218188,-19.098544093217328 L 37.48350594223653,-20.050959135038823 A 82.39352073790735 82.39352073790735 0 0 0 21.40063509461097,-12.933012701892217 Z M 83.59186260343068,-21.251994663303293 L 83.33705534490063,-20.285002801393176 A 81.39352073790735 81.39352073790735 0 0 1 99.56925443320698,-14.090108007925073 L 98.20654673972751,-11.417463672789577 L 106.03254249743638,-11.355897445662231 L 101.38619802451294,-17.653633788105736 L 100.02349033103347,-14.98098945297024 A 82.39352073790735 82.39352073790735 0 0 0 83.59186260343068,-21.251994663303293"/><text text-anchor="middle" pointer-events="none" font-size="8px" fill="#000000" x="60.46494737362758" y="-20.443882962185214" font-family="sans-serif">twowheeler</text></g><g class="relationship" transform="translate(-122.8084891431533 136.8437380870305) rotate(319.9492327934228)"><path class="outline" fill="#A5ABB6" stroke="none" d="M 25 0.5 L 68.73955157996949 0.5 L 68.73955157996949 -0.5 L 25 -0.5 Z M 88.07548907996949 0.5 L 131.81504065993897 0.5 L 131.81504065993897 3.5 L 138.81504065993897 0 L 131.81504065993897 -3.5 L 131.81504065993897 -0.5 L 88.07548907996949 -0.5 Z"/><text text-anchor="middle" pointer-events="none" font-size="8px" fill="#000000" x="78.40752032996949" y="3" font-family="sans-serif">trek</text></g><g class="relationship" transform="translate(-263.21507946694317 52.987780609276214) rotate(390.84719547690037)"><path class="outline" fill="#A5ABB6" stroke="none" d="M 25 0.5 L 68.60279651923223 0.5 L 68.60279651923223 -0.5 L 25 -0.5 Z M 87.93873401923223 0.5 L 131.54153053846446 0.5 L 131.54153053846446 3.5 L 138.54153053846446 0 L 131.54153053846446 -3.5 L 131.54153053846446 -0.5 L 87.93873401923223 -0.5 Z"/><text text-anchor="middle" pointer-events="none" font-size="8px" fill="#000000" x="78.27076526923223" y="3" font-family="sans-serif">trek</text></g></g><g class="layer nodes"><g class="node" aria-label="graph-node3" transform="translate(2.587763149121503,31.434310342309175)"><circle class="outline" cx="0" cy="0" r="25" fill="#57C7E3" stroke="#23b3d7" stroke-width="2px"/><text class="caption" text-anchor="middle" pointer-events="none" x="0" y="5" font-size="10px" fill="#2A2C34" font-family="sans-serif"> Sandakp…</text></g><g class="node" aria-label="graph-node1" transform="translate(94.76178720923632,69.11606916796568)"><circle class="outline" cx="0" cy="0" r="25" fill="#D9C8AE" stroke="#c0a378" stroke-width="2px"/><text class="caption" text-anchor="middle" pointer-events="none" x="0" y="5" font-size="10px" fill="#2A2C34" font-family="sans-serif"> Darjeeling</text></g><g class="node" aria-label="graph-node6" transform="translate(164.12733374208713,-47.727434720389084)"><circle class="outline" cx="0" cy="0" r="25" fill="#F16667" stroke="#eb2728" stroke-width="2px"/><text class="caption" text-anchor="middle" pointer-events="none" x="0" y="5" font-size="10px" fill="#FFFFFF" font-family="sans-serif"> Tumbling</text></g><g class="node" aria-label="graph-node2" transform="translate(91.86374998836637,-140.78360813763524)"><circle class="outline" cx="0" cy="0" r="25" fill="#F16667" stroke="#eb2728" stroke-width="2px"/><text class="caption" text-anchor="middle" pointer-events="none" x="0" y="5" font-size="10px" fill="#FFFFFF" font-family="sans-serif"> BhikeBh…</text></g><g class="node" aria-label="graph-node7" transform="translate(235.9349802246229,-172.8574323536956)"><circle class="outline" cx="0" cy="0" r="25" fill="#F16667" stroke="#eb2728" stroke-width="2px"/><text class="caption" text-anchor="middle" pointer-events="none" x="0" y="5" font-size="10px" fill="#FFFFFF" font-family="sans-serif"> Gairibus</text></g><g class="node" aria-label="graph-node0" transform="translate(-8.870206758231244,-67.36003829154416)"><circle class="outline" cx="0" cy="0" r="25" fill="#D9C8AE" stroke="#c0a378" stroke-width="2px"/><text class="caption" text-anchor="middle" pointer-events="none" x="0" y="5" font-size="10px" fill="#2A2C34" font-family="sans-serif"> Rimbik</text></g><g class="node" aria-label="graph-node5" transform="translate(-135.77554418854567,38.113986749040265)"><circle class="outline" cx="0" cy="0" r="25" fill="#F16667" stroke="#eb2728" stroke-width="2px"/><text class="caption" text-anchor="middle" pointer-events="none" x="0" y="5" font-size="10px" fill="#FFFFFF" font-family="sans-serif"> Gurdum</text></g><g class="node" aria-label="graph-node4" transform="translate(-179.3394118256212,-93.05464001770038)"><circle class="outline" cx="0" cy="0" r="25" fill="#F16667" stroke="#eb2728" stroke-width="2px"/><text class="caption" text-anchor="middle" pointer-events="none" x="0" y="5" font-size="10px" fill="#FFFFFF" font-family="sans-serif"> Sirikhola</text></g><g class="node" aria-label="graph-node8" transform="translate(-263.21507946694317,52.987780609276214)"><circle class="outline" cx="0" cy="0" r="25" fill="#F16667" stroke="#eb2728" stroke-width="2px"/><text class="caption" text-anchor="middle" pointer-events="none" x="0" y="5" font-size="10px" fill="#FFFFFF" font-family="sans-serif"> Rammam</text></g><g class="node" aria-label="graph-node9" transform="translate(-122.8084891431533,136.8437380870305)"><circle class="outline" cx="0" cy="0" r="25" fill="#57C7E3" stroke="#23b3d7" stroke-width="2px"/><text class="caption" text-anchor="middle" pointer-events="none" x="0" y="5" font-size="10px" fill="#2A2C34" font-family="sans-serif"> Sabargr…</text></g></g></svg>