<svg xmlns="http://www.w3.org/2000/svg" width="211.1533203125" height="211.4883270263672" viewBox="-150.2226104736328 -149.63873291015625 211.1533203125 211.4883270263672"><title>Neo4j Graph Visualization</title><desc>Created using Neo4j (http://www.neo4j.com/)</desc><g class="layer relationships"><g class="relationship" transform="translate(-23.76343743855244 -120.63872935212852) rotate(455.10923516588923)"><path class="outline" fill="#A5ABB6" stroke="none" d="M 25 0.5 L 63.88233250175493 0.5 L 63.88233250175493 -0.5 L 25 -0.5 Z M 83.21827000175493 0.5 L 122.10060250350986 0.5 L 122.10060250350986 3.5 L 129.10060250350986 0 L 122.10060250350986 -3.5 L 122.10060250350986 -0.5 L 83.21827000175493 -0.5 Z"/><text text-anchor="middle" pointer-events="none" font-size="8px" fill="#000000" x="73.55030125175493" y="3" transform="rotate(180 73.55030125175493 0)" font-family="sans-serif">trek</text></g><g class="relationship selected" transform="translate(-121.22261146050744 -20.990349018721563) rotate(314.363661503308)"><path class="outline" fill="#A5ABB6" stroke="none" d="M 25 0.5 L 56.52437355550913 0.5 L 56.52437355550913 -0.5 L 25 -0.5 Z M 75.86031105550913 0.5 L 107.38468461101826 0.5 L 107.38468461101826 3.5 L 114.38468461101826 0 L 107.38468461101826 -3.5 L 107.38468461101826 -0.5 L 75.86031105550913 -0.5 Z"/><text text-anchor="middle" pointer-events="none" font-size="8px" fill="#000000" x="66.19234230550913" y="3" font-family="sans-serif">trek</text></g><g class="relationship" transform="translate(31.93070018142576 -38.0758618908806) rotate(533.6345036999437)"><path class="outline" fill="#A5ABB6" stroke="none" d="M 21.40063509461097,12.933012701892217 L 21.90063509461097,12.06698729810778 A 107.71293846267419 107.71293846267419 0 0 0 63.80505981170325,25.832619459685304 L 63.694097798366414,26.826444107999208 A 108.71293846267419 108.71293846267419 0 0 1 21.40063509461097,12.933012701892217 Z M 83.08891534785336,27.250267197658687 L 83.02147341200299,26.25254399692176 A 107.71293846267419 107.71293846267419 0 0 0 125.48723298391344,14.330601887558748 L 124.10215902619578,11.669479918980025 L 131.92736323688342,11.542282980980634 L 127.33399826087035,17.87876451233038 L 125.94892430315268,15.217642543751657 A 108.71293846267419 108.71293846267419 0 0 1 83.08891534785336,27.250267197658687"/><text text-anchor="middle" pointer-events="none" font-size="8px" fill="#000000" x="73.39295754900714" y="29.97195669184164" transform="rotate(180 73.39295754900714 26.97195669184164)" font-family="sans-serif">trek</text></g><g class="relationship" transform="translate(31.93070018142576 -38.0758618908806) rotate(533.6345036999437)"><path class="outline" fill="#A5ABB6" stroke="none" d="M 25 0.5 L 62.545830445853085 0.5 L 62.545830445853085 -0.5 L 25 -0.5 Z M 84.55754919585308 0.5 L 122.10337964170617 0.5 L 122.10337964170617 3.5 L 129.10337964170617 0 L 122.10337964170617 -3.5 L 122.10337964170617 -0.5 L 84.55754919585308 -0.5 Z"/><text text-anchor="middle" pointer-events="none" font-size="8px" fill="#000000" x="73.55168982085308" y="3" transform="rotate(180 73.55168982085308 0)" font-family="sans-serif">road</text></g><g class="relationship" transform="translate(31.93070018142576 -38.0758618908806) rotate(533.6345036999437)"><path class="outline" fill="#A5ABB6" stroke="none" d="M 21.40063509461097,-12.933012701892217 L 21.90063509461097,-12.06698729810778 A 107.71293846267419 107.71293846267419 0 0 1 43.19844784367023,-21.459141987001004 L 42.89617536882209,-22.412363551459748 A 108.71293846267419 108.71293846267419 0 0 0 21.40063509461097,-12.933012701892217 Z M 104.05980845209343,-23.74893502896957 L 103.7994649775597,-22.783418962159857 A 107.71293846267419 107.71293846267419 0 0 1 125.48723298391344,-14.330601887558748 L 124.10215902619578,-11.669479918980025 L 131.92736323688342,-11.542282980980634 L 127.33399826087035,-17.87876451233038 L 125.94892430315268,-15.217642543751657 A 108.71293846267419 108.71293846267419 0 0 0 104.05980845209343,-23.74893502896957"/><text text-anchor="middle" pointer-events="none" font-size="8px" fill="#000000" x="73.39295754900712" y="-23.97195669184164" transform="rotate(180 73.39295754900712 -26.97195669184164)" font-family="sans-serif">PublicTransport</text></g></g><g class="layer nodes"><g class="node" aria-label="graph-node3" transform="translate(-37.48684219199615,32.84958894577295)"><circle class="outline" cx="0" cy="0" r="25" fill="#57C7E3" stroke="#23b3d7" stroke-width="2px"/><text class="caption" text-anchor="middle" pointer-events="none" x="0" y="5" font-size="10px" fill="#2A2C34" font-family="sans-serif"> Sandakp…</text></g><g class="node" aria-label="graph-node1" transform="translate(31.93070018142576,-38.0758618908806)"><circle class="outline" cx="0" cy="0" r="25" fill="#D9C8AE" stroke="#c0a378" stroke-width="2px"/><text class="caption" text-anchor="middle" pointer-events="none" x="0" y="5" font-size="10px" fill="#2A2C34" font-family="sans-serif"> Darjeeling</text></g><g class="node" aria-label="graph-node2" transform="translate(-23.76343743855244,-120.63872935212852)"><circle class="outline" cx="0" cy="0" r="25" fill="#F16667" stroke="#eb2728" stroke-width="2px"/><text class="caption" text-anchor="middle" pointer-events="none" x="0" y="5" font-size="10px" fill="#FFFFFF" font-family="sans-serif"> BhikeBh…</text></g><g class="node" aria-label="graph-node0" transform="translate(-121.22261146050744,-20.990349018721563)"><circle class="outline" cx="0" cy="0" r="25" fill="#D9C8AE" stroke="#c0a378" stroke-width="2px"/><text class="caption" text-anchor="middle" pointer-events="none" x="0" y="5" font-size="10px" fill="#2A2C34" font-family="sans-serif"> Rimbik</text></g></g></svg>